#!OML:ASF F:\VICON\USERDATA\INSTALL\rory3\rory3.ASF
:FULLY-SPECIFIED
:DEGREES
3629
root -2.78497 17.2622 -0.880622 1.30798 5.60683 1.52641
lowerback 3.90951 -1.26607 -3.581
upperback 1.39087 -1.78339 3.93324
thorax -0.52122 -0.913239 6.17068
lowerneck -24.1934 1.94556 -8.41809
upperneck 24.5373 5.44612 1.8938
head 11.7872 1.89003 3.01377
rclavicle 1.85864e-014 0
rhumerus -39.6095 -18.3161 -47.1253
rradius 37.3148
rwrist 18.5023
rhand -26.9839 1.72683
rfingers 7.12502
rthumb -0.404574 -28.2525
lclavicle 1.85864e-014 0
lhumerus -35.4077 23.4094 53.7835
lradius 33.6043
lwrist -4.45733
lhand -18.4084 25.5798
lfingers 7.12502
lthumb 7.87613 55.4131
rfemur -5.86719 4.74065 4.71594
rtibia 29.3903
rfoot -21.4493 -5.8826
rtoes -13.1066
lfemur -9.53615 2.86266 -8.28715
ltibia 28.9532
lfoot -11.8489 11.5604
ltoes -28.0621
3630
root -2.79298 17.2697 -0.891129 1.51949 5.64587 1.2579
lowerback 3.90333 -1.29207 -3.30448
upperback 1.41988 -1.80674 4.05291
thorax -0.48971 -0.925971 6.13842
lowerneck -24.5156 2.18255 -8.03352
upperneck 24.6111 5.83017 1.35289
head 11.8895 2.01647 2.82139
rclavicle -3.74709e-014 2.22639e-014
rhumerus -39.9599 -18.533 -46.7075
rradius 37.2226
rwrist 18.3182
rhand -27.2769 1.39816
rfingers 7.12502
rthumb -0.687502 -28.5805
lclavicle -3.74709e-014 2.22639e-014
lhumerus -36.1061 23.9431 53.1095
lradius 33.5639
lwrist -4.44375
lhand -18.0705 25.4616
lfingers 7.12502
lthumb 8.20228 55.2824
rfemur -6.11857 4.74628 5.05111
rtibia 29.3233
rfoot -21.4212 -6.0962
rtoes -13.4964
lfemur -9.96445 2.84965 -7.98586
ltibia 29.0668
lfoot -11.7309 11.5156
ltoes -27.4834
3631
root -2.80117 17.2741 -0.902617 1.64643 5.68413 0.962017
lowerback 3.96234 -1.29988 -2.9958
upperback 1.48706 -1.80634 4.14028
thorax -0.460616 -0.927123 6.05408
lowerneck -24.7461 2.35539 -7.70459
upperneck 24.5718 6.0921 0.935898
head 11.9331 2.10532 2.65952
rclavicle 6.36111e-015 -1.27222e-014
rhumerus -40.2648 -18.7931 -46.367
rradius 37.1186
rwrist 18.3277
rhand -27.5997 1.41223
rfingers 7.12502
rthumb -0.999342 -28.5652
lclavicle 6.36111e-015 -1.27222e-014
lhumerus -36.6975 24.4432 52.4456
lradius 33.4377
lwrist -4.35779
lhand -17.7561 24.6311
lfingers 7.12502
lthumb 8.50576 54.4398
rfemur -6.28713 4.78204 5.41884
rtibia 29.2572
rfoot -21.3978 -6.26524
rtoes -13.6998
lfemur -10.3157 2.86586 -7.64776
ltibia 29.2039
lfoot -11.6165 11.5048
ltoes -27.0179
3632
root -2.80899 17.2762 -0.911636 1.72685 5.66587 0.805901
lowerback 4.01734 -1.27421 -2.86182
upperback 1.61609 -1.7694 4.17532
thorax -0.366028 -0.913167 6.01226
lowerneck -25.0483 2.43871 -7.58747
upperneck 24.5545 6.22543 0.824956
head 11.9859 2.15751 2.62805
rclavicle 8.74653e-015 2.06736e-014
rhumerus -40.4406 -19.0343 -46.1126
rradius 36.9873
rwrist 18.4689
rhand -27.7297 1.6754
rfingers 7.12502
rthumb -1.12486 -28.3014
lclavicle 8.74653e-015 2.06736e-014
lhumerus -37.3953 24.7175 51.8703
lradius 33.53
lwrist -3.7715
lhand -18.4791 24.1662
lfingers 7.12502
lthumb 7.80793 54.002
rfemur -6.41861 4.85008 5.61417
rtibia 29.2115
rfoot -21.354 -6.29888
rtoes -13.4989
lfemur -10.5198 2.90559 -7.46097
ltibia 29.3386
lfoot -11.6263 11.4659
ltoes -26.2863
3633
root -2.81162 17.279 -0.920019 1.81922 5.61085 0.715547
lowerback 4.05883 -1.23525 -2.76297
upperback 1.72762 -1.71575 4.20215
thorax -0.283065 -0.890123 5.98127
lowerneck -25.2607 2.51897 -7.56827
upperneck 24.5048 6.37144 0.749816
head 12.0039 2.21359 2.62463
rclavicle -2.34566e-014 1.27222e-014
rhumerus -40.5302 -19.1583 -45.8831
rradius 36.9065
rwrist 18.6282
rhand -27.7004 1.94926
rfingers 7.12502
rthumb -1.09652 -28.0277
lclavicle -2.34566e-014 1.27222e-014
lhumerus -38.1254 25.0077 51.2918
lradius 33.5472
lwrist -3.22919
lhand -19.4911 24.1826
lfingers 7.12502
lthumb 6.83105 54.0524
rfemur -6.57767 4.84798 5.7104
rtibia 29.1991
rfoot -21.2592 -6.33291
rtoes -13.575
lfemur -10.7043 2.938 -7.36063
ltibia 29.4761
lfoot -11.709 11.3846
ltoes -25.3538
